<svg width="68" height="57" viewBox="0 0 68 57" fill="none" xmlns="http://www.w3.org/2000/svg">
<path d="M40.8737 9.78331C44.0055 11.7469 46.2015 15.0697 46.6013 18.9267C47.8785 19.5235 49.2961 19.8667 50.799 19.8667C56.2857 19.8667 60.7328 15.4197 60.7328 9.93377C60.7328 4.44704 56.2857 0 50.799 0C45.3647 0.00169057 40.9565 4.36927 40.8737 9.78331ZM34.3658 30.1225C39.8526 30.1225 44.2996 25.6746 44.2996 20.1888C44.2996 14.7029 39.8517 10.2558 34.3658 10.2558C28.88 10.2558 24.4304 14.7037 24.4304 20.1896C24.4304 25.6755 28.88 30.1225 34.3658 30.1225ZM38.5796 30.7996H30.1504C23.1371 30.7996 17.4314 36.5061 17.4314 43.5194V53.8277L17.4576 53.9891L18.1677 54.2114C24.8606 56.3026 30.6753 57 35.4613 57C44.8093 57 50.2276 54.3348 50.5615 54.1649L51.225 53.8293H51.296V43.5194C51.2986 36.5061 45.5929 30.7996 38.5796 30.7996ZM55.0144 20.5446H46.6504C46.5599 23.8911 45.1314 26.9045 42.8719 29.0718C49.1059 30.9255 53.6671 36.7064 53.6671 43.5346V46.7112C61.9255 46.4086 66.6844 44.068 66.998 43.9108L67.6616 43.5744H67.7326V33.2628C67.7326 26.2503 62.0269 20.5446 55.0144 20.5446ZM16.9353 19.8684C18.8786 19.8684 20.6866 19.3012 22.2183 18.335C22.7052 15.1593 24.4076 12.3842 26.8394 10.4942C26.8496 10.3082 26.8673 10.124 26.8673 9.93631C26.8673 4.44957 22.4195 0.00253567 16.9353 0.00253567C11.4477 0.00253567 7.00148 4.44957 7.00148 9.93631C7.00148 15.4205 11.4477 19.8684 16.9353 19.8684ZM25.8564 29.0718C23.6079 26.9155 22.1845 23.9181 22.0805 20.592C21.7703 20.5691 21.4634 20.5446 21.1473 20.5446H12.719C5.70566 20.5446 0 26.2503 0 33.2628V43.5727L0.0262038 43.7316L0.736242 43.9556C6.10548 45.6318 10.8974 46.4044 15.0596 46.6478V43.5346C15.0613 36.7064 19.6207 30.9272 25.8564 29.0718Z" fill="#273957"/>
</svg>
