<svg width="68" height="68" viewBox="0 0 68 68" fill="none" xmlns="http://www.w3.org/2000/svg">
<path fill-rule="evenodd" clip-rule="evenodd" d="M22.6667 5.66669C24.2315 5.66669 25.5 6.93521 25.5 8.50002H42.5C42.5 6.93521 43.7685 5.66669 45.3333 5.66669C46.8981 5.66669 48.1667 6.93521 48.1667 8.50002C55.9907 8.50002 62.3333 14.8427 62.3333 22.6667V48.1667C62.3333 55.9907 55.9907 62.3334 48.1667 62.3334H19.8333C12.0093 62.3334 5.66667 55.9907 5.66667 48.1667V22.6667C5.66667 14.8427 12.0093 8.50002 19.8333 8.50002C19.8333 6.93521 21.1019 5.66669 22.6667 5.66669ZM44.567 33.1045C45.6373 31.9629 45.5794 30.1699 44.4378 29.0997C43.2963 28.0294 41.5032 28.0873 40.433 29.2289L31.6084 38.6418L27.2808 35.1448C26.0637 34.1613 24.2798 34.3506 23.2963 35.5677C22.3127 36.7848 22.5021 38.5688 23.7192 39.5523L30.0942 44.7038C31.2485 45.6366 32.927 45.5206 33.942 44.4379L44.567 33.1045Z" fill="#273957"/>
</svg>
