<svg width="25" height="26" viewBox="0 0 25 26" fill="none" xmlns="http://www.w3.org/2000/svg">
<path fill-rule="evenodd" clip-rule="evenodd" d="M7.5 0.5C8.19036 0.5 8.75 1.05964 8.75 1.75H16.25C16.25 1.05964 16.8096 0.5 17.5 0.5C18.1904 0.5 18.75 1.05964 18.75 1.75C22.2018 1.75 25 4.54822 25 8V19.25C25 22.7018 22.2018 25.5 18.75 25.5H6.25C2.79822 25.5 0 22.7018 0 19.25V8C0 4.54822 2.79822 1.75 6.25 1.75C6.25 1.05964 6.80964 0.5 7.5 0.5ZM17.1619 12.6049C17.6341 12.1013 17.6086 11.3102 17.1049 10.8381C16.6013 10.3659 15.8102 10.3914 15.3381 10.8951L11.4449 15.0478L9.53565 13.505C8.99869 13.0711 8.21166 13.1547 7.77776 13.6916C7.34385 14.2286 7.42739 15.0156 7.96435 15.4495L10.7768 17.7222C11.2861 18.1338 12.0266 18.0826 12.4744 17.6049L17.1619 12.6049Z" fill="#273957"/>
</svg>
