<svg width="12" height="12" viewBox="0 0 12 12" fill="none" xmlns="http://www.w3.org/2000/svg">
<path fill-rule="evenodd" clip-rule="evenodd" d="M0.410704 0.410826C0.736141 0.0853888 1.26378 0.0853888 1.58922 0.410826L11.5892 10.4108C11.9147 10.7363 11.9147 11.2639 11.5892 11.5893C11.2638 11.9148 10.7361 11.9148 10.4107 11.5893L0.410704 1.58934C0.0852667 1.2639 0.0852667 0.736263 0.410704 0.410826Z" fill="black"/>
<path fill-rule="evenodd" clip-rule="evenodd" d="M11.5892 0.410826C11.2637 0.0853888 10.7361 0.0853888 10.4107 0.410826L0.410662 10.4108C0.0852251 10.7363 0.0852251 11.2639 0.410662 11.5893C0.736099 11.9148 1.26374 11.9148 1.58917 11.5893L11.5892 1.58934C11.9146 1.2639 11.9146 0.736263 11.5892 0.410826Z" fill="black"/>
</svg>
