<svg width="68" height="68" viewBox="0 0 68 68" fill="none" xmlns="http://www.w3.org/2000/svg">
<path d="M47.5998 37.3734C48.9231 37.3734 50.2091 37.5356 51.4391 37.8391V10.8543C51.4391 6.02248 47.5088 2.0918 42.6773 2.0918H15.9338C11.1023 2.0918 7.17203 6.02248 7.17203 10.8543V48.53C7.17203 53.3618 11.1023 57.2929 15.9338 57.2929H32.1125C31.7927 56.0318 31.6222 54.7112 31.6222 53.3509C31.6222 44.527 38.7754 37.3734 47.5998 37.3734ZM16.8571 9.52593H42.0256C43.0571 9.52593 43.8933 10.3621 43.8933 11.3936C43.8933 12.4247 43.0571 13.2613 42.0256 13.2613H16.8571C15.826 13.2613 14.9894 12.4247 14.9894 11.3936C14.9894 10.3621 15.8256 9.52593 16.8571 9.52593ZM16.8571 15.9356H38.2902C39.3217 15.9356 40.1579 16.7721 40.1579 17.8032C40.1579 18.8347 39.3217 19.6709 38.2902 19.6709H16.8571C15.826 19.6709 14.9894 18.8347 14.9894 17.8032C14.9894 16.7721 15.8256 15.9356 16.8571 15.9356ZM16.8571 22.3452H41.8898C42.9213 22.3452 43.7575 23.1814 43.7575 24.2129C43.7575 25.244 42.9213 26.0805 41.8898 26.0805H16.8571C15.826 26.0805 14.9894 25.244 14.9894 24.2129C14.9894 23.1814 15.8256 22.3452 16.8571 22.3452ZM22.9368 50.0712H16.8571C15.826 50.0712 14.9894 49.2347 14.9894 48.2035C14.9894 47.172 15.826 46.3359 16.8571 46.3359H22.9368C23.9683 46.3359 24.8044 47.172 24.8044 48.2035C24.8044 49.2347 23.9683 50.0712 22.9368 50.0712Z" fill="#273957"/>
<path d="M47.5998 40.86C40.7128 40.86 35.1102 46.4631 35.1102 53.3509C35.1102 60.2384 40.7128 65.8418 47.5998 65.8418C54.4869 65.8418 60.0895 60.2384 60.0895 53.3513C60.0895 46.4631 54.4865 40.86 47.5998 40.86ZM53.1297 51.3914L47.3395 57.182C46.975 57.5485 46.4952 57.7326 46.015 57.7326C45.545 57.7326 45.0734 57.5555 44.7104 57.2007L42.0848 54.6361C41.347 53.9155 41.3334 52.7326 42.054 51.9945C42.775 51.2568 43.9575 51.2432 44.6952 51.9642L46.0003 53.2388L50.4889 48.7502C51.2181 48.021 52.4009 48.021 53.1297 48.7502C53.8593 49.4798 53.8593 50.6622 53.1297 51.3914Z" fill="#273957"/>
</svg>
