<svg width="30" height="30" viewBox="0 0 30 30" fill="none" xmlns="http://www.w3.org/2000/svg">
<circle cx="15" cy="15" r="15" fill="#273957"/>
<path fill-rule="evenodd" clip-rule="evenodd" d="M14.5059 11.5833C13.9869 9.7082 12.1185 8.55004 10.2696 9.16674C9.06499 9.56851 8.33171 10.3181 8.08862 11.3178C7.86267 12.2471 8.09817 13.2499 8.46393 14.1362C9.20047 15.9208 10.6582 17.689 11.4836 18.5149C12.29 19.3219 14.0555 20.786 15.8436 21.5293C16.7313 21.8983 17.7379 22.1379 18.6715 21.9125C19.6762 21.6699 20.4295 20.9329 20.8335 19.7198C21.4493 17.871 20.2932 16.0011 18.4185 15.4815L18.4185 15.4815C17.1371 15.1263 15.7932 15.465 14.8761 16.2881C14.6609 16.1214 14.4538 15.9393 14.2564 15.7417C14.058 15.5432 13.8752 15.3349 13.7079 15.1183C14.5246 14.2008 14.8595 12.861 14.5059 11.5833L14.5059 11.5833Z" fill="white"/>
</svg>
