<svg width="26" height="26" viewBox="0 0 26 26" fill="none" xmlns="http://www.w3.org/2000/svg">
<circle cx="13" cy="13" r="13" fill="white"/>
<path d="M16.1566 6.11768H9.84383C7.78929 6.11768 6.11786 7.78911 6.11786 9.84365V16.1565C6.11786 18.2109 7.78929 19.8823 9.84383 19.8823H16.1567C18.2111 19.8823 19.8825 18.2109 19.8825 16.1565V9.84365C19.8825 7.78911 18.2111 6.11768 16.1566 6.11768V6.11768ZM13.0002 16.7637C10.9249 16.7637 9.23652 15.0753 9.23652 13C9.23652 10.9247 10.9249 9.23634 13.0002 9.23634C15.0755 9.23634 16.7639 10.9247 16.7639 13C16.7639 15.0753 15.0755 16.7637 13.0002 16.7637ZM16.8539 10.1239C16.2406 10.1239 15.7417 9.62511 15.7417 9.01181C15.7417 8.39852 16.2406 7.89959 16.8539 7.89959C17.4672 7.89959 17.9661 8.39852 17.9661 9.01181C17.9661 9.62511 17.4672 10.1239 16.8539 10.1239Z" fill="#273957"/>
<path d="M12.9997 10.0432C11.3694 10.0432 10.043 11.3696 10.043 12.9999C10.043 14.6302 11.3694 15.9567 12.9997 15.9567C14.6301 15.9567 15.9564 14.6302 15.9564 12.9999C15.9564 11.3696 14.6301 10.0432 12.9997 10.0432Z" fill="#273957"/>
<path d="M16.8537 8.70654C16.6855 8.70654 16.5485 8.84348 16.5485 9.01172C16.5485 9.17996 16.6855 9.3169 16.8537 9.3169C17.022 9.3169 17.159 9.18006 17.159 9.01172C17.159 8.84338 17.022 8.70654 16.8537 8.70654Z" fill="#273957"/>
</svg>
