<svg width="26" height="26" viewBox="0 0 26 26" fill="none" xmlns="http://www.w3.org/2000/svg">
<circle cx="13" cy="13" r="13" fill="#273957"/>
<path d="M16.1566 6.11768H9.84389C7.78936 6.11768 6.11792 7.78911 6.11792 9.84365V16.1565C6.11792 18.2109 7.78936 19.8823 9.84389 19.8823H16.1567C18.2112 19.8823 19.8826 18.2109 19.8826 16.1565V9.84365C19.8826 7.78911 18.2112 6.11768 16.1566 6.11768V6.11768ZM13.0003 16.7637C10.9249 16.7637 9.23658 15.0753 9.23658 13C9.23658 10.9247 10.9249 9.23634 13.0003 9.23634C15.0756 9.23634 16.7639 10.9247 16.7639 13C16.7639 15.0753 15.0756 16.7637 13.0003 16.7637ZM16.8539 10.1239C16.2406 10.1239 15.7418 9.62511 15.7418 9.01181C15.7418 8.39852 16.2406 7.89959 16.8539 7.89959C17.4672 7.89959 17.9661 8.39852 17.9661 9.01181C17.9661 9.62511 17.4672 10.1239 16.8539 10.1239Z" fill="#F7F8FA"/>
<path d="M12.9997 10.0433C11.3694 10.0433 10.043 11.3697 10.043 13.0001C10.043 14.6303 11.3694 15.9568 12.9997 15.9568C14.6301 15.9568 15.9564 14.6303 15.9564 13.0001C15.9564 11.3697 14.6301 10.0433 12.9997 10.0433Z" fill="#F7F8FA"/>
<path d="M16.8538 8.70667C16.6855 8.70667 16.5486 8.84361 16.5486 9.01184C16.5486 9.18008 16.6855 9.31702 16.8538 9.31702C17.0221 9.31702 17.159 9.18018 17.159 9.01184C17.159 8.8435 17.0221 8.70667 16.8538 8.70667Z" fill="#F7F8FA"/>
</svg>
