<svg width="30" height="30" viewBox="0 0 30 30" fill="none" xmlns="http://www.w3.org/2000/svg">
<circle cx="15" cy="15" r="15" fill="#273957"/>
<path fill-rule="evenodd" clip-rule="evenodd" d="M10.3333 10C9.04467 10 8 11.0553 8 12.3571V18.6429C8 19.9447 9.04467 21 10.3333 21H19.6667C20.9553 21 22 19.9447 22 18.6429V12.3571C22 11.0553 20.9553 10 19.6667 10H10.3333ZM11.9373 12.9007C11.6354 12.6635 11.1949 12.7115 10.9534 13.008C10.7119 13.3045 10.7608 13.7372 11.0627 13.9743L14.5627 16.7243L15 17.0679L15.4373 16.7243L18.9373 13.9743C19.2392 13.7372 19.2881 13.3045 19.0466 13.008C18.8051 12.7115 18.3646 12.6635 18.0627 12.9007L15 15.3071L11.9373 12.9007Z" fill="white"/>
</svg>
