<svg width="34" height="34" viewBox="0 0 34 34" fill="none" xmlns="http://www.w3.org/2000/svg">
<rect width="34" height="34" rx="1" transform="matrix(4.37114e-08 -1 -1 -4.37114e-08 34 34)" fill="#F2F2F2"/>
<path d="M16.2929 8.29289C16.6834 7.90237 17.3166 7.90237 17.7071 8.29289L24.0711 14.6569C24.4616 15.0474 24.4616 15.6805 24.0711 16.0711C23.6805 16.4616 23.0474 16.4616 22.6569 16.0711L17 10.4142L11.3431 16.0711C10.9526 16.4616 10.3195 16.4616 9.92893 16.0711C9.53841 15.6805 9.53841 15.0474 9.92893 14.6569L16.2929 8.29289ZM16 26L16 9L18 9L18 26L16 26Z" fill="#181C25"/>
</svg>
