<svg width="20" height="14" viewBox="0 0 20 14" fill="none" xmlns="http://www.w3.org/2000/svg">
<path fill-rule="evenodd" clip-rule="evenodd" d="M19.4167 7.5H6.58333C6.26117 7.5 6 7.16421 6 6.75C6 6.33579 6.26117 6 6.58333 6H19.4167C19.7388 6 20 6.33579 20 6.75C20 7.16421 19.7388 7.5 19.4167 7.5ZM19.3333 1.5H4.66667C4.29848 1.5 4 1.16421 4 0.75C4 0.335786 4.29848 0 4.66667 0H19.3333C19.7015 0 20 0.335786 20 0.75C20 1.16421 19.7015 1.5 19.3333 1.5ZM0.833333 12H19.1667C19.6269 12 20 12.3358 20 12.75C20 13.1642 19.6269 13.5 19.1667 13.5H0.833333C0.373096 13.5 0 13.1642 0 12.75C0 12.3358 0.373096 12 0.833333 12Z" fill="#273957"/>
</svg>
