<svg width="25" height="30" viewBox="0 0 25 30" fill="none" xmlns="http://www.w3.org/2000/svg">
<path d="M14.0721 6.52752C16.3542 4.61039 17.8791 0.291389 16.9407 0.102486C15.6938 -0.148608 12.986 0.952409 11.6772 1.14639C9.82097 1.37052 7.79923 -0.866525 6.6644 0.380405C5.74169 1.39424 7.32591 5.08124 9.80445 6.68748C2.40985 10.3218 -7.98377 28.5665 10.1484 29.8903C35.2375 31.7221 22.6745 10.0691 14.0721 6.52752ZM16.2267 20.9161C16.1496 21.6274 15.7726 22.2706 15.2092 22.7073C14.6142 23.1684 13.868 23.3829 13.1266 23.443V24.2289C13.1266 24.4391 13.0347 24.6425 12.8773 24.7817C12.6609 24.9732 12.343 25.0204 12.0804 24.8994C11.8211 24.7801 11.6508 24.5142 11.6508 24.2289V23.3699C11.5236 23.3458 11.3974 23.317 11.2727 23.2828C10.5798 23.0924 9.93702 22.7213 9.46752 22.1722C9.23365 21.8986 9.04298 21.588 8.91111 21.2528C8.87667 21.1652 8.84596 21.076 8.81906 20.9857C8.79471 20.9041 8.76958 20.821 8.7609 20.7359C8.74628 20.5931 8.77459 20.4474 8.84116 20.3202C8.97796 20.0585 9.26626 19.9005 9.56063 19.9267C9.85033 19.9524 10.1043 20.1535 10.1955 20.4296C10.2236 20.5147 10.2426 20.6019 10.2742 20.686C10.3054 20.7696 10.3432 20.8508 10.3876 20.9282C10.4753 21.0805 10.5851 21.221 10.7116 21.3429C10.9724 21.5942 11.3045 21.7574 11.6508 21.8546V18.9348C10.9737 18.7595 10.2749 18.5331 9.71579 18.0984C9.44408 17.887 9.21353 17.6244 9.06253 17.3136C8.90321 16.9856 8.8372 16.6201 8.83452 16.2572C8.83177 15.8886 8.9018 15.5233 9.05554 15.1875C9.19955 14.8731 9.40688 14.5908 9.66108 14.3568C10.2046 13.8565 10.9266 13.5774 11.6508 13.4749V13.4107V12.6591C11.6508 12.4489 11.7427 12.2454 11.9001 12.1062C12.1165 11.9149 12.4343 11.8676 12.697 11.9886C12.9562 12.1079 13.1266 12.3738 13.1266 12.6591V13.4107V13.4705C13.2231 13.4826 13.3193 13.4972 13.4151 13.5145C14.1262 13.6432 14.8217 13.9369 15.3418 14.4496C15.5882 14.6924 15.7898 14.9818 15.9317 15.2973C15.9713 15.3854 16.0059 15.4754 16.0359 15.5673C16.0639 15.6529 16.092 15.7411 16.1053 15.8304C16.1266 15.9731 16.1049 16.1205 16.0438 16.251C15.9187 16.5184 15.6382 16.6887 15.3431 16.6761C15.0531 16.6634 14.7903 16.4746 14.6865 16.2035C14.6556 16.1229 14.6401 16.0375 14.6086 15.9571C14.5767 15.8758 14.5355 15.7981 14.488 15.7248C14.3957 15.5822 14.276 15.4599 14.1394 15.3592C13.8436 15.1408 13.4849 15.027 13.1264 14.9634V17.7575C13.5524 17.8595 13.9788 17.9708 14.387 18.1317C15.0039 18.375 15.5884 18.748 15.9252 19.3362C15.8729 19.2445 15.8221 19.1552 15.9269 19.3392C16.0298 19.5199 15.9807 19.4338 15.929 19.3432C16.1969 19.8153 16.285 20.3799 16.2267 20.9161Z" fill="#273957"/>
</svg>
