<svg width="68" height="68" viewBox="0 0 68 68" fill="none" xmlns="http://www.w3.org/2000/svg">
<g clip-path="url(#clip0)">
<path d="M38.625 45.1708C38.3711 44.8927 38.0498 44.6847 37.7178 44.5114C36.9949 44.1344 36.2043 43.9058 35.4193 43.6993V49.7822C36.6934 49.6382 38.1562 49.1758 38.8252 47.9863C39.1446 47.4181 39.2081 46.72 39.078 46.0875C39.0074 45.7447 38.8617 45.4301 38.625 45.1708Z" fill="#B15632"/>
<path d="M38.8185 47.9984C38.8212 47.9939 38.8227 47.9911 38.8255 47.9862C38.8232 47.9902 38.8208 47.9943 38.8185 47.9984Z" fill="#B15632"/>
<path d="M29.4429 35.4468C29.2238 35.7666 29.0864 36.13 29.0485 36.5163C29.0105 36.9033 29.0318 37.3339 29.1789 37.6982C29.3189 38.0455 29.6122 38.3018 29.9149 38.5082C30.2546 38.7393 30.6282 38.9197 31.0087 39.0727C31.3279 39.2012 31.687 39.3241 32.074 39.4428V33.9385C31.0962 34.1472 30.0279 34.5926 29.4429 35.4468Z" fill="#B15632"/>
<path d="M38.851 47.9413C38.8428 47.9558 38.834 47.9709 38.8254 47.9869C38.8355 47.9683 38.8435 47.9546 38.851 47.9413Z" fill="#B15632"/>
<path d="M38.8824 47.8842C38.8845 47.8805 38.8848 47.8802 38.8824 47.8842V47.8842Z" fill="#B15632"/>
<path d="M37.5623 14.7957C42.7351 10.4502 46.1916 0.660482 44.0645 0.232302C41.2381 -0.336845 35.1005 2.15879 32.134 2.59849C27.9265 3.10652 23.3438 -1.96412 20.7716 0.862252C18.6801 3.16028 22.271 11.5175 27.889 15.1583C11.1279 23.3961 -12.431 64.7507 28.6687 67.7513C85.5372 71.9034 57.0611 22.8233 37.5623 14.7957ZM42.4462 47.4099C42.2713 49.0221 41.4168 50.4801 40.1397 51.4699C38.7911 52.5151 37.0997 53.0012 35.4191 53.1374V54.9187C35.4191 55.3954 35.211 55.8564 34.8541 56.1719C34.3637 56.6059 33.643 56.7129 33.0478 56.4387C32.4601 56.1682 32.074 55.5655 32.074 54.9187V52.9718C31.7858 52.917 31.4997 52.8519 31.217 52.7743C29.6464 52.3428 28.1895 51.5016 27.1253 50.2571C26.5952 49.6367 26.163 48.9328 25.8641 48.173C25.786 47.9744 25.7164 47.7722 25.6555 47.5677C25.6003 47.3825 25.5433 47.1944 25.5236 47.0014C25.4905 46.6777 25.5547 46.3475 25.7055 46.0591C26.0156 45.466 26.6691 45.1077 27.3363 45.1672C27.993 45.2255 28.5686 45.6812 28.7753 46.3071C28.839 46.4999 28.8822 46.6975 28.9537 46.8883C29.0246 47.0777 29.1102 47.2619 29.2108 47.4373C29.4096 47.7826 29.6585 48.101 29.9453 48.3773C30.5363 48.9468 31.2892 49.3169 32.074 49.537V42.9188C30.5394 42.5215 28.9553 42.0084 27.688 41.023C27.0722 40.544 26.5496 39.9487 26.2073 39.2442C25.8462 38.5007 25.6966 37.6723 25.6905 36.8496C25.6843 36.0142 25.843 35.1861 26.1915 34.425C26.5179 33.7123 26.9878 33.0724 27.564 32.542C28.7961 31.408 30.4326 30.7755 32.0742 30.5432V30.3976V28.694C32.0742 28.2175 32.2823 27.7563 32.6392 27.4408C33.1297 27.007 33.8501 26.8998 34.4455 27.1741C35.033 27.4446 35.4193 28.0472 35.4193 28.694V30.3976V30.5331C35.638 30.5606 35.8561 30.5936 36.0731 30.6329C37.685 30.9246 39.2615 31.5903 40.4403 32.7524C40.9987 33.3028 41.4559 33.9587 41.7773 34.6739C41.8671 34.8735 41.9457 35.0776 42.0137 35.2858C42.077 35.4799 42.1407 35.6797 42.171 35.8823C42.2193 36.2057 42.17 36.5398 42.0316 36.8356C41.7481 37.4417 41.1122 37.8277 40.4432 37.799C39.7859 37.7704 39.1903 37.3424 38.955 36.728C38.8849 36.5452 38.8498 36.3518 38.7783 36.1695C38.7062 35.985 38.6127 35.809 38.505 35.6428C38.2957 35.3196 38.0245 35.0424 37.7149 34.8141C37.0445 34.319 36.2313 34.0611 35.4188 33.9169V40.2504C36.3844 40.4816 37.3509 40.7337 38.2761 41.0986C39.6744 41.6499 40.9994 42.4954 41.7626 43.8286C41.6442 43.6209 41.529 43.4185 41.7666 43.8355C41.9999 44.2451 41.8885 44.0499 41.7714 43.8446C42.3786 44.9147 42.5782 46.1943 42.4462 47.4099Z" fill="#B15632"/>
<path d="M38.8011 48.0293C38.7912 48.0471 38.7826 48.0627 38.7757 48.0746C38.7816 48.0643 38.7904 48.0488 38.8011 48.0293Z" fill="#B15632"/>
</g>
<defs>
<clipPath id="clip0">
<rect width="68" height="68" fill="white"/>
</clipPath>
</defs>
</svg>
