<svg width="30" height="30" viewBox="0 0 30 30" fill="none" xmlns="http://www.w3.org/2000/svg">
<path d="M20.9999 16.4883C21.5837 16.4883 22.151 16.5598 22.6936 16.6937V4.78867C22.6936 2.65698 20.9597 0.922852 18.8282 0.922852H7.02953C4.89801 0.922852 3.16406 2.65698 3.16406 4.78867V21.4103C3.16406 23.542 4.89801 25.2763 7.02953 25.2763H14.1672C14.0261 24.7199 13.9509 24.1373 13.9509 23.5372C13.9509 19.6442 17.1067 16.4883 20.9999 16.4883ZM7.43689 4.20261H18.5406C18.9957 4.20261 19.3646 4.57152 19.3646 5.02659C19.3646 5.48149 18.9957 5.85056 18.5406 5.85056H7.43689C6.98198 5.85056 6.61291 5.48149 6.61291 5.02659C6.61291 4.57152 6.98181 4.20261 7.43689 4.20261ZM7.43689 7.03039H16.8927C17.3478 7.03039 17.7167 7.39947 17.7167 7.85437C17.7167 8.30944 17.3478 8.67834 16.8927 8.67834H7.43689C6.98198 8.67834 6.61291 8.30944 6.61291 7.85437C6.61291 7.39947 6.98181 7.03039 7.43689 7.03039ZM7.43689 9.85817H18.4807C18.9358 9.85817 19.3047 10.2271 19.3047 10.6821C19.3047 11.137 18.9358 11.5061 18.4807 11.5061H7.43689C6.98198 11.5061 6.61291 11.137 6.61291 10.6821C6.61291 10.2271 6.98181 9.85817 7.43689 9.85817ZM10.1191 22.0903H7.43689C6.98198 22.0903 6.61291 21.7212 6.61291 21.2663C6.61291 20.8112 6.98198 20.4423 7.43689 20.4423H10.1191C10.5742 20.4423 10.9431 20.8112 10.9431 21.2663C10.9431 21.7212 10.5742 22.0903 10.1191 22.0903Z" fill="#273957"/>
<path d="M21.0004 18.0266C17.962 18.0266 15.4902 20.4985 15.4902 23.5373C15.4902 26.5759 17.962 29.048 21.0004 29.048C24.0388 29.048 26.5106 26.5759 26.5106 23.5375C26.5106 20.4985 24.0386 18.0266 21.0004 18.0266ZM23.44 22.6728L20.8856 25.2275C20.7247 25.3892 20.513 25.4704 20.3012 25.4704C20.0938 25.4704 19.8858 25.3923 19.7256 25.2357L18.5673 24.1043C18.2418 23.7864 18.2358 23.2645 18.5537 22.9389C18.8718 22.6134 19.3935 22.6074 19.7189 22.9255L20.2947 23.4879L22.275 21.5076C22.5967 21.1859 23.1185 21.1859 23.44 21.5076C23.7619 21.8294 23.7619 22.3511 23.44 22.6728Z" fill="#273957"/>
</svg>
